<svg version="1.1" id="Layer_1" xmlns="http://www.w3.org/2000/svg" xmlns:xlink="http://www.w3.org/1999/xlink" x="0px" y="0px"
	 width="100%" viewBox="0 0 225 225" enable-background="new 0 0 225 225" xml:space="preserve">
<path fill="#BFCCA1" opacity="1.000000" stroke="none" 
	d="
M132.000000,226.000000 
	C88.000000,226.000000 44.500004,226.000000 1.000006,226.000000 
	C1.000004,151.000000 1.000004,76.000015 1.000002,1.000016 
	C75.999992,1.000011 150.999985,1.000011 225.999969,1.000005 
	C225.999985,75.999985 225.999985,150.999969 226.000000,225.999969 
	C194.833328,226.000000 163.666672,226.000000 132.000000,226.000000 
M121.383865,76.811371 
	C121.803917,76.262962 122.223969,75.714554 123.451492,75.088394 
	C128.908234,71.157181 134.861832,67.736877 139.631149,63.098789 
	C142.391739,60.414150 143.245026,55.768223 145.165390,51.382767 
	C145.041122,47.590073 144.916855,43.797379 144.692886,39.428875 
	C144.081223,38.453274 143.469559,37.477669 142.513565,35.886364 
	C133.692429,27.261534 123.159142,28.550463 115.297943,39.570267 
	C115.198563,40.047386 115.099190,40.524502 114.605515,41.590317 
	C113.812950,41.919861 113.020386,42.249405 112.162956,41.919811 
	C111.443695,40.578159 110.724426,39.236504 109.974670,37.171650 
	C109.023178,33.136009 105.968216,31.796419 101.597214,31.359203 
	C89.063911,28.052675 79.783623,35.515594 80.855728,48.112740 
	C81.022491,50.072258 81.623375,51.994831 82.037834,54.687244 
	C84.464600,63.662098 92.245331,67.553017 99.164711,72.295151 
	C98.191948,69.558372 96.411827,67.554565 94.647362,65.537056 
	C90.947174,61.306225 87.255234,57.068188 83.450958,52.051018 
	C83.218521,50.257462 82.845551,48.469219 82.777443,46.669445 
	C82.442612,37.820786 89.165695,31.463020 97.762383,32.363178 
	C99.162376,32.509773 100.588928,32.402706 102.095520,33.172150 
	C104.077492,34.785892 106.059456,36.399635 108.105247,38.696571 
	C109.119080,40.456200 110.132912,42.215828 111.209915,44.677216 
	C111.694092,46.297455 112.178268,47.917690 112.662445,49.537930 
	C113.015633,49.576130 113.368813,49.614330 113.721992,49.652531 
	C114.566368,47.098602 115.410744,44.544674 116.840202,41.814644 
	C117.228447,40.938618 117.616699,40.062592 118.426460,38.623997 
	C125.409416,30.583038 133.586853,30.180250 141.680878,38.030396 
	C142.113815,38.686935 142.546753,39.343472 143.061432,40.808262 
	C143.032623,44.540955 143.003815,48.273647 142.583923,52.400139 
	C140.351837,55.515816 138.464767,58.970226 135.811676,61.672565 
	C131.126480,66.444702 125.974564,70.758598 120.690720,75.759399 
	C120.131668,76.532936 119.572609,77.306480 118.314941,78.043320 
	C116.592064,79.389099 114.869194,80.734879 112.954674,82.230362 
	C111.209015,80.597351 109.579460,79.072960 107.916565,76.878670 
	C106.283470,74.721191 104.650383,72.563705 103.017288,70.406219 
	C102.449562,70.967018 101.881828,71.527809 101.314102,72.088608 
	C100.245728,76.072823 102.599716,77.171127 106.356247,77.801491 
	C111.721291,81.432144 112.121864,86.107231 108.909164,92.220039 
	C108.585854,93.771912 108.262543,95.323776 107.013634,96.968040 
	C96.326401,97.033058 85.639160,97.098068 74.023178,97.096855 
	C68.356995,97.085762 62.685898,97.214348 57.026314,97.015480 
	C53.122570,96.878311 51.725811,98.471420 51.742043,102.321831 
	C51.839691,125.486664 51.841049,148.652344 51.739197,171.817139 
	C51.722485,175.618042 52.952667,177.147247 56.933910,177.136368 
	C94.597984,177.033386 132.262558,177.035934 169.926682,177.128876 
	C173.966507,177.138840 175.072876,175.413651 175.058197,171.692535 
	C174.966797,148.527664 174.972794,125.362099 175.053879,102.197136 
	C175.066315,98.650253 173.868988,96.928581 170.142258,97.032173 
	C163.815216,97.208046 157.482559,97.181625 150.197983,97.111763 
	C143.069809,97.083900 135.939102,97.159691 128.814438,96.987160 
	C124.887527,96.892059 120.970718,96.379822 117.285126,95.389206 
	C117.461678,94.701759 117.638222,94.014305 117.547112,92.675247 
	C117.186508,91.251564 117.132355,89.644035 116.408852,88.438072 
	C114.077698,84.552422 115.655411,82.054726 119.608269,79.846947 
	C120.073166,78.979111 120.538071,78.111275 121.383865,76.811371 
z"/>
<path fill="#F15951" opacity="1.000000" stroke="none" 
	d="
M151.152252,97.240219 
	C157.482559,97.181625 163.815216,97.208046 170.142258,97.032173 
	C173.868988,96.928581 175.066315,98.650253 175.053879,102.197136 
	C174.972794,125.362099 174.966797,148.527664 175.058197,171.692535 
	C175.072876,175.413651 173.966507,177.138840 169.926682,177.128876 
	C132.262558,177.035934 94.597984,177.033386 56.933910,177.136368 
	C52.952667,177.147247 51.722485,175.618042 51.739197,171.817139 
	C51.841049,148.652344 51.839691,125.486664 51.742043,102.321831 
	C51.725811,98.471420 53.122570,96.878311 57.026314,97.015480 
	C62.685898,97.214348 68.356995,97.085762 74.672340,97.425133 
	C75.957176,99.279556 76.871666,100.751999 77.177788,102.341614 
	C78.218620,107.746391 81.319176,109.213898 86.711197,109.088913 
	C102.640610,108.719673 118.584091,108.956978 134.522064,108.956879 
	C147.014862,108.956795 147.014862,108.956734 151.152252,97.240219 
M167.082138,166.954697 
	C167.127533,152.626740 167.189270,138.298813 167.210831,123.970825 
	C167.220261,117.693436 166.808029,117.292343 160.298035,117.289360 
	C128.805359,117.274910 97.312691,117.274124 65.820038,117.290810 
	C59.746181,117.294029 59.137901,117.897842 59.127796,123.800018 
	C59.105255,136.963577 59.274181,150.129929 59.040749,163.289383 
	C58.955399,168.100830 60.713825,169.734100 65.452042,169.715103 
	C97.277458,169.587585 129.103729,169.681046 160.929276,169.569626 
	C162.897018,169.562744 164.860794,168.423386 167.082138,166.954697 
z"/>
<path fill="#F48E85" opacity="1.000000" stroke="none" 
	d="
M150.675110,97.175995 
	C147.014862,108.956734 147.014862,108.956795 134.522064,108.956879 
	C118.584091,108.956978 102.640610,108.719673 86.711197,109.088913 
	C81.319176,109.213898 78.218620,107.746391 77.177788,102.341614 
	C76.871666,100.751999 75.957176,99.279556 75.136719,97.458252 
	C85.639160,97.098068 96.326401,97.033058 107.834038,96.929871 
	C111.452744,96.613022 114.251053,96.334335 117.049355,96.055649 
	C120.970718,96.379822 124.887527,96.892059 128.814438,96.987160 
	C135.939102,97.159691 143.069809,97.083900 150.675110,97.175995 
z"/>
<path fill="#BCC99F" opacity="1.000000" stroke="none" 
	d="
M144.956680,52.004959 
	C143.245026,55.768223 142.391739,60.414150 139.631149,63.098789 
	C134.861832,67.736877 128.908234,71.157181 122.783699,75.230453 
	C121.749939,75.336449 121.383980,75.300385 121.018013,75.264313 
	C125.974564,70.758598 131.126480,66.444702 135.811676,61.672565 
	C138.464767,58.970226 140.351837,55.515816 143.024551,52.248459 
	C143.962341,52.066177 144.459518,52.035568 144.956680,52.004959 
z"/>
<path fill="#241F23" opacity="1.000000" stroke="none" 
	d="
M102.003204,32.412884 
	C100.588928,32.402706 99.162376,32.509773 97.762383,32.363178 
	C89.165695,31.463020 82.442612,37.820786 82.777443,46.669445 
	C82.845551,48.469219 83.218521,50.257462 83.339767,52.642120 
	C82.826881,53.466980 82.425201,53.700733 82.023514,53.934486 
	C81.623375,51.994831 81.022491,50.072258 80.855728,48.112740 
	C79.783623,35.515594 89.063911,28.052675 101.969749,31.445356 
	C102.290718,31.842791 102.177696,32.136581 102.003204,32.412884 
z"/>
<path fill="#BCC99F" opacity="1.000000" stroke="none" 
	d="
M82.030670,54.310867 
	C82.425201,53.700733 82.826881,53.466980 83.394241,53.033165 
	C87.255234,57.068188 90.947174,61.306225 94.647362,65.537056 
	C96.411827,67.554565 98.191948,69.558372 99.164711,72.295151 
	C92.245331,67.553017 84.464600,63.662098 82.030670,54.310867 
z"/>
<path fill="#2F2B2B" opacity="1.000000" stroke="none" 
	d="
M109.232788,91.474403 
	C112.121864,86.107231 111.721291,81.432144 106.589630,77.615112 
	C107.198647,77.468681 107.574280,77.508621 107.949905,77.548569 
	C109.579460,79.072960 111.209015,80.597351 112.954674,82.230362 
	C114.869194,80.734879 116.592064,79.389099 118.650017,78.034218 
	C118.985092,78.025116 118.943443,77.979263 119.010193,78.311569 
	C119.043144,79.093079 119.009346,79.542290 118.975548,79.991501 
	C115.655411,82.054726 114.077698,84.552422 116.408852,88.438072 
	C117.132355,89.644035 117.186508,91.251564 117.409866,92.866249 
	C115.949234,91.171432 114.625847,89.285622 113.390976,87.525932 
	C112.126572,88.726562 110.679680,90.100487 109.232788,91.474403 
z"/>
<path fill="#221C22" opacity="1.000000" stroke="none" 
	d="
M141.436783,37.490601 
	C133.586853,30.180250 125.409416,30.583038 117.812485,38.938965 
	C116.663231,39.229485 116.127953,39.205040 115.592674,39.180595 
	C123.159142,28.550463 133.692429,27.261534 142.325195,36.433861 
	C141.903473,37.151104 141.670135,37.320850 141.436783,37.490601 
z"/>
<path fill="#B5C29A" opacity="1.000000" stroke="none" 
	d="
M109.070976,91.847221 
	C110.679680,90.100487 112.126572,88.726562 113.390976,87.525932 
	C114.625847,89.285622 115.949234,91.171432 117.543694,93.192055 
	C117.638222,94.014305 117.461678,94.701759 117.167236,95.722427 
	C114.251053,96.334335 111.452744,96.613022 108.296829,96.883682 
	C108.262543,95.323776 108.585854,93.771912 109.070976,91.847221 
z"/>
<path fill="#221C22" opacity="1.000000" stroke="none" 
	d="
M112.227821,42.578949 
	C113.020386,42.249405 113.812950,41.919861 114.968277,41.511086 
	C115.639069,41.618149 115.947090,41.804443 116.255112,41.990738 
	C115.410744,44.544674 114.566368,47.098602 113.721992,49.652531 
	C113.368813,49.614330 113.015633,49.576130 112.662445,49.537930 
	C112.178268,47.917690 111.694092,46.297455 111.396255,44.124680 
	C111.797668,43.241077 112.012749,42.910015 112.227821,42.578949 
z"/>
<path fill="#201B1F" opacity="1.000000" stroke="none" 
	d="
M145.061035,51.693863 
	C144.459518,52.035568 143.962341,52.066177 143.220093,52.051559 
	C143.003815,48.273647 143.032623,44.540955 143.322708,40.403358 
	C143.986847,40.000530 144.389709,40.002609 144.792572,40.004684 
	C144.916855,43.797379 145.041122,47.590073 145.061035,51.693863 
z"/>
<path fill="#BCC99F" opacity="1.000000" stroke="none" 
	d="
M102.049362,32.792519 
	C102.177696,32.136581 102.290718,31.842791 102.335449,31.368837 
	C105.968216,31.796419 109.023178,33.136009 109.661430,37.536736 
	C108.912605,37.939007 108.477013,37.976192 108.041428,38.013378 
	C106.059456,36.399635 104.077492,34.785892 102.049362,32.792519 
z"/>
<path fill="#BCC99F" opacity="1.000000" stroke="none" 
	d="
M107.933235,77.213623 
	C107.574280,77.508621 107.198647,77.468681 106.560379,77.282394 
	C102.599716,77.171127 100.245728,76.072823 101.314102,72.088608 
	C101.881828,71.527809 102.449562,70.967018 103.017288,70.406219 
	C104.650383,72.563705 106.283470,74.721191 107.933235,77.213623 
z"/>
<path fill="#221B22" opacity="1.000000" stroke="none" 
	d="
M108.073334,38.354973 
	C108.477013,37.976192 108.912605,37.939007 109.676682,37.898335 
	C110.724426,39.236504 111.443695,40.578159 112.195389,42.249382 
	C112.012749,42.910015 111.797668,43.241077 111.364670,43.773796 
	C110.132912,42.215828 109.119080,40.456200 108.073334,38.354973 
z"/>
<path fill="#BCC99F" opacity="1.000000" stroke="none" 
	d="
M116.547653,41.902691 
	C115.947090,41.804443 115.639069,41.618149 115.165428,41.216736 
	C115.099190,40.524502 115.198563,40.047386 115.445312,39.375431 
	C116.127953,39.205040 116.663231,39.229485 117.601730,39.220245 
	C117.616699,40.062592 117.228447,40.938618 116.547653,41.902691 
z"/>
<path fill="#2F2B2B" opacity="1.000000" stroke="none" 
	d="
M120.854370,75.511856 
	C121.383980,75.300385 121.749939,75.336449 122.379959,75.269333 
	C122.223969,75.714554 121.803917,76.262962 120.921417,76.878403 
	C119.953789,77.290047 119.448616,77.634651 118.943443,77.979263 
	C118.943443,77.979263 118.985092,78.025116 118.999329,78.052567 
	C119.572609,77.306480 120.131668,76.532936 120.854370,75.511856 
z"/>
<path fill="#221C22" opacity="1.000000" stroke="none" 
	d="
M144.742737,39.716782 
	C144.389709,40.002609 143.986847,40.000530 143.281830,39.999229 
	C142.546753,39.343472 142.113815,38.686935 141.558838,37.760498 
	C141.670135,37.320850 141.903473,37.151104 142.497345,36.741711 
	C143.469559,37.477669 144.081223,38.453274 144.742737,39.716782 
z"/>
<path fill="#BCC99F" opacity="1.000000" stroke="none" 
	d="
M119.010193,78.311569 
	C119.448616,77.634651 119.953789,77.290047 120.730965,77.094437 
	C120.538071,78.111275 120.073166,78.979111 119.291908,79.919220 
	C119.009346,79.542290 119.043144,79.093079 119.010193,78.311569 
z"/>
<path fill="#FDDBA0" opacity="1.000000" stroke="none" 
	d="
M166.954285,167.382812 
	C164.860794,168.423386 162.897018,169.562744 160.929276,169.569626 
	C129.103729,169.681046 97.277458,169.587585 65.452042,169.715103 
	C60.713825,169.734100 58.955399,168.100830 59.040749,163.289383 
	C59.274181,150.129929 59.105255,136.963577 59.127796,123.800018 
	C59.137901,117.897842 59.746181,117.294029 65.820038,117.290810 
	C97.312691,117.274124 128.805359,117.274910 160.298035,117.289360 
	C166.808029,117.292343 167.220261,117.693436 167.210831,123.970825 
	C167.189270,138.298813 167.127533,152.626740 166.954285,167.382812 
M164.518646,165.367218 
	C164.606018,150.996323 164.699631,136.625458 164.750519,122.254440 
	C164.752029,121.824181 164.305847,121.392334 163.403732,120.449883 
	C162.591202,120.312233 161.778748,120.054810 160.966110,120.054222 
	C129.553925,120.031517 98.141701,120.021210 66.729568,120.070801 
	C65.485504,120.072762 64.242386,120.674408 62.414059,121.594406 
	C62.320068,135.808517 62.215240,150.022598 62.173889,164.236862 
	C62.172325,164.774399 62.785469,165.313721 63.665886,166.459656 
	C64.799896,166.629684 65.933784,166.947250 67.067947,166.948242 
	C97.963203,166.975281 128.858505,166.982666 159.753693,166.929337 
	C161.164948,166.926910 162.575165,166.328888 164.518646,165.367218 
z"/>
<path fill="#F9A57E" opacity="1.000000" stroke="none" 
	d="
M62.998825,120.996635 
	C64.242386,120.674408 65.485504,120.072762 66.729568,120.070801 
	C98.141701,120.021210 129.553925,120.031517 160.966110,120.054222 
	C161.778748,120.054810 162.591202,120.312233 163.600235,120.904030 
	C163.593826,121.611031 163.349579,121.814148 162.722198,121.725685 
	C160.401642,121.338699 158.423065,121.069588 156.444107,121.067001 
	C125.301811,121.026253 94.159477,121.019806 63.010643,121.005913 
	C63.004147,121.006340 62.998825,120.996635 62.998825,120.996635 
z"/>
<path fill="#FBAC7F" opacity="1.000000" stroke="none" 
	d="
M163.985855,166.008240 
	C162.575165,166.328888 161.164948,166.926910 159.753693,166.929337 
	C128.858505,166.982666 97.963203,166.975281 67.067947,166.948242 
	C65.933784,166.947250 64.799896,166.629684 63.403412,166.167206 
	C63.140934,165.874771 63.155609,165.908981 63.610863,165.887451 
	C96.991196,165.874420 129.916275,165.882919 163.126938,165.925903 
	C163.603638,165.976334 163.794739,165.992279 163.985855,166.008240 
z"/>
<path fill="#FAB88A" opacity="1.000000" stroke="none" 
	d="
M164.252258,165.687729 
	C163.794739,165.992279 163.603638,165.976334 163.330551,165.577698 
	C163.158844,161.469498 163.069107,157.744003 162.991058,153.548813 
	C163.023163,142.708588 163.043564,132.338058 163.063980,121.967545 
	C163.349579,121.814148 163.593826,121.611031 163.932556,121.159698 
	C164.305847,121.392334 164.752029,121.824181 164.750519,122.254440 
	C164.699631,136.625458 164.606018,150.996323 164.252258,165.687729 
z"/>
<path fill="#F58A6F" opacity="1.000000" stroke="none" 
	d="
M63.126549,165.863495 
	C62.785469,165.313721 62.172325,164.774399 62.173889,164.236862 
	C62.215240,150.022598 62.320068,135.808517 62.706444,121.295517 
	C62.998825,120.996635 63.004147,121.006340 63.010696,121.473961 
	C63.064037,132.668854 63.110828,143.396118 63.095131,154.570648 
	C63.073631,158.648285 63.114620,162.278625 63.155609,165.908981 
	C63.155609,165.908981 63.140934,165.874771 63.126549,165.863495 
z"/>
<path fill="#FEDFA1" opacity="1.000000" stroke="none" 
	d="
M63.157616,154.123383 
	C63.110828,143.396118 63.064037,132.668854 63.017197,121.473534 
	C94.159477,121.019806 125.301811,121.026253 156.444107,121.067001 
	C158.423065,121.069588 160.401642,121.338699 162.722198,121.725685 
	C163.043564,132.338058 163.023163,142.708588 162.524628,153.562714 
	C129.083542,154.072006 96.120575,154.097687 63.157616,154.123383 
M122.068741,126.937569 
	C118.050056,126.983215 114.031380,127.028862 109.346321,126.966927 
	C108.899353,127.002182 108.452385,127.037430 107.116241,126.934906 
	C97.065918,126.990791 87.015587,127.046677 76.391457,127.166267 
	C76.108681,127.421234 75.825905,127.676208 75.065010,128.626068 
	C75.224022,134.442612 75.383034,140.259155 75.896759,146.536591 
	C76.252823,146.658783 76.608894,146.780975 77.896217,147.055481 
	C89.265617,147.009933 100.635025,146.964386 112.918495,147.040833 
	C116.610855,147.000168 120.303215,146.959503 124.924736,147.057999 
	C132.389038,147.075226 139.855133,147.001907 147.316833,147.150528 
	C150.698822,147.217911 152.203125,145.944672 152.070419,142.495422 
	C151.923843,138.685715 151.979538,134.865143 152.049820,131.051193 
	C152.103668,128.129303 150.820343,126.816017 147.865280,126.866524 
	C140.571289,126.991188 133.275467,127.009026 125.236115,126.955711 
	C124.485611,126.995132 123.735100,127.034554 122.068741,126.937569 
z"/>
<path fill="#FEFBF9" opacity="1.000000" stroke="none" 
	d="
M63.095131,154.570648 
	C96.120575,154.097687 129.083542,154.072006 162.512939,154.032425 
	C163.069107,157.744003 163.158844,161.469498 163.044968,165.543198 
	C129.916275,165.882919 96.991196,165.874420 63.610863,165.887451 
	C63.114620,162.278625 63.073631,158.648285 63.095131,154.570648 
M151.079346,162.123352 
	C152.642914,162.123352 154.206467,162.123352 156.840591,162.123352 
	C155.487000,159.857620 154.606308,158.383438 152.836212,155.420547 
	C151.660568,158.461105 151.042282,160.060165 151.079346,162.123352 
z"/>
<path fill="#ED564E" opacity="1.000000" stroke="none" 
	d="
M76.965256,127.102554 
	C87.015587,127.046677 97.065918,126.990791 107.558472,127.320953 
	C107.999481,128.129715 107.998260,128.552414 107.544426,128.980164 
	C103.724350,129.594421 100.356888,130.203644 96.638184,131.075073 
	C94.784248,144.050156 94.784256,144.052292 107.084473,143.989761 
	C108.067932,143.984756 109.051102,143.922165 110.364189,143.966553 
	C111.134232,144.149643 111.574486,144.252518 112.013390,144.675919 
	C112.009491,145.637238 112.006958,146.278046 112.004425,146.918839 
	C100.635025,146.964386 89.265617,147.009933 77.233734,146.781860 
	C76.228180,146.364059 75.885117,146.219879 75.542046,146.075699 
	C75.383034,140.259155 75.224022,134.442612 75.575058,128.198151 
	C76.378487,127.547684 76.671875,127.325119 76.965256,127.102554 
M85.181190,142.728668 
	C88.031258,142.673462 90.983154,142.655869 91.990631,139.214081 
	C93.020592,135.695465 90.999298,132.886581 88.442451,131.442734 
	C87.058571,130.661255 82.609009,132.047180 82.497223,132.861160 
	C82.096870,135.776443 82.924019,138.870285 83.386482,141.881332 
	C83.444054,142.256134 84.098251,142.539291 85.181190,142.728668 
z"/>
<path fill="#ED564E" opacity="1.000000" stroke="none" 
	d="
M125.980385,127.069817 
	C133.275467,127.009026 140.571289,126.991188 147.865280,126.866524 
	C150.820343,126.816017 152.103668,128.129303 152.049820,131.051193 
	C151.979538,134.865143 151.923843,138.685715 152.070419,142.495422 
	C152.203125,145.944672 150.698822,147.217911 147.316833,147.150528 
	C139.855133,147.001907 132.389038,147.075226 124.461258,146.667206 
	C123.993996,145.633606 123.990219,144.990784 124.237068,144.232483 
	C124.660690,144.054825 124.833679,143.992661 125.431107,143.965363 
	C129.802734,144.592972 131.425034,142.911575 130.946579,138.960571 
	C130.768158,137.487152 130.810532,135.964844 130.938065,134.480804 
	C131.269455,130.624863 129.511826,129.301666 125.823479,130.071625 
	C125.776123,130.047256 125.757462,129.942383 125.710037,129.698212 
	C125.768532,128.659302 125.874458,127.864555 125.980385,127.069817 
M138.228745,130.975342 
	C136.608017,132.160202 133.608414,133.377045 133.634995,134.523697 
	C133.704224,137.508499 134.594604,140.804367 136.241241,143.244843 
	C136.823990,144.108521 140.542816,142.856232 142.902954,141.906860 
	C143.914810,139.760605 146.179062,137.204544 145.642532,135.564972 
	C144.854279,133.156067 142.932236,130.005875 138.228745,130.975342 
z"/>
<path fill="#DF574F" opacity="1.000000" stroke="none" 
	d="
M96.989426,130.812866 
	C100.356888,130.203644 103.724350,129.594421 107.845360,128.924881 
	C109.070175,128.267883 109.541435,127.671196 110.012695,127.074501 
	C114.031380,127.028862 118.050056,126.983215 122.527924,127.328117 
	C122.992928,128.363678 122.998749,129.008682 122.552078,129.739777 
	C118.059853,130.164658 114.020134,130.503448 109.519623,130.879196 
	C105.035690,130.881714 101.012558,130.847290 96.989426,130.812866 
z"/>
<path fill="#F24D4C" opacity="1.000000" stroke="none" 
	d="
M123.986443,144.347961 
	C123.990219,144.990784 123.993996,145.633606 123.996674,146.597626 
	C120.303215,146.959503 116.610855,147.000168 112.461456,146.979828 
	C112.006958,146.278046 112.009491,145.637238 112.468231,144.602905 
	C116.611763,144.255554 120.299103,144.301758 123.986443,144.347961 
z"/>
<path fill="#F24C4B" opacity="1.000000" stroke="none" 
	d="
M123.004578,129.653702 
	C122.998749,129.008682 122.992928,128.363678 122.985855,127.396317 
	C123.735100,127.034554 124.485611,126.995132 125.608246,127.012764 
	C125.874458,127.864555 125.768532,128.659302 125.365562,129.690521 
	C124.380539,129.835922 123.692551,129.744812 123.004578,129.653702 
z"/>
<path fill="#F24C4B" opacity="1.000000" stroke="none" 
	d="
M109.679504,127.020714 
	C109.541435,127.671196 109.070175,128.267883 108.297974,128.919861 
	C107.998260,128.552414 107.999481,128.129715 108.003067,127.389847 
	C108.452385,127.037430 108.899353,127.002182 109.679504,127.020714 
z"/>
<path fill="#F24D4C" opacity="1.000000" stroke="none" 
	d="
M75.719406,146.306152 
	C75.885117,146.219879 76.228180,146.364059 76.768112,146.705688 
	C76.608894,146.780975 76.252823,146.658783 75.719406,146.306152 
z"/>
<path fill="#F24C4B" opacity="1.000000" stroke="none" 
	d="
M76.678360,127.134415 
	C76.671875,127.325119 76.378487,127.547684 75.814117,127.850708 
	C75.825905,127.676208 76.108681,127.421234 76.678360,127.134415 
z"/>
<path fill="#F2635C" opacity="1.000000" stroke="none" 
	d="
M150.751678,161.891296 
	C151.042282,160.060165 151.660568,158.461105 152.836212,155.420547 
	C154.606308,158.383438 155.487000,159.857620 156.840591,162.123352 
	C154.206467,162.123352 152.642914,162.123352 150.751678,161.891296 
z"/>
<path fill="#242021" opacity="1.000000" stroke="none" 
	d="
M96.638184,131.075058 
	C101.012558,130.847290 105.035690,130.881714 109.764824,131.228683 
	C110.325356,135.656265 110.179878,139.771301 110.034401,143.886337 
	C109.051102,143.922165 108.067932,143.984756 107.084473,143.989761 
	C94.784256,144.052292 94.784248,144.050156 96.638184,131.075058 
z"/>
<path fill="#B9BA9E" opacity="1.000000" stroke="none" 
	d="
M110.364189,143.966553 
	C110.179878,139.771301 110.325356,135.656265 110.225616,131.191742 
	C114.020134,130.503448 118.059853,130.164658 122.552071,129.739777 
	C123.692551,129.744812 124.380539,129.835922 125.412994,129.934692 
	C125.757462,129.942383 125.776123,130.047256 125.661865,130.410995 
	C122.361092,135.036377 123.734749,139.485535 125.006668,143.930496 
	C124.833679,143.992661 124.660690,144.054825 124.237068,144.232483 
	C120.299103,144.301758 116.611763,144.255554 112.469589,144.282379 
	C111.574486,144.252518 111.134232,144.149643 110.364189,143.966553 
z"/>
<path fill="#E9E7E8" opacity="1.000000" stroke="none" 
	d="
M84.828590,142.796783 
	C84.098251,142.539291 83.444054,142.256134 83.386482,141.881332 
	C82.924019,138.870285 82.096870,135.776443 82.497223,132.861160 
	C82.609009,132.047180 87.058571,130.661255 88.442451,131.442734 
	C90.999298,132.886581 93.020592,135.695465 91.990631,139.214081 
	C90.983154,142.655869 88.031258,142.673462 84.828590,142.796783 
z"/>
<path fill="#EAEAEA" opacity="1.000000" stroke="none" 
	d="
M139.012146,131.166260 
	C142.932236,130.005875 144.854279,133.156067 145.642532,135.564972 
	C146.179062,137.204544 143.914810,139.760605 142.540436,142.351227 
	C140.824829,142.495132 139.433289,142.309570 138.126053,141.872131 
	C134.539810,140.672028 133.864319,136.679306 136.681107,133.992264 
	C137.558395,133.155380 138.240616,132.114014 139.012146,131.166260 
z"/>
<path fill="#282122" opacity="1.000000" stroke="none" 
	d="
M125.431107,143.965363 
	C123.734749,139.485535 122.361092,135.036377 125.709229,130.435364 
	C129.511826,129.301666 131.269455,130.624863 130.938065,134.480804 
	C130.810532,135.964844 130.768158,137.487152 130.946579,138.960571 
	C131.425034,142.911575 129.802734,144.592972 125.431107,143.965363 
z"/>
<path fill="#1D1D1E" opacity="1.000000" stroke="none" 
	d="
M138.620453,131.070801 
	C138.240616,132.114014 137.558395,133.155380 136.681107,133.992264 
	C133.864319,136.679306 134.539810,140.672028 138.126053,141.872131 
	C139.433289,142.309570 140.824829,142.495132 142.503906,142.682770 
	C140.542816,142.856232 136.823990,144.108521 136.241241,143.244843 
	C134.594604,140.804367 133.704224,137.508499 133.634995,134.523697 
	C133.608414,133.377045 136.608017,132.160202 138.620453,131.070801 
z"/>
</svg>